<svg version="1.1" id="Layer_1" xmlns="http://www.w3.org/2000/svg" xmlns:xlink="http://www.w3.org/1999/xlink" x="0px" y="0px"
	 width="100%" viewBox="0 0 117 55" enable-background="new 0 0 117 55" xml:space="preserve">
<path fill="#C0CF53" opacity="1.000000" stroke="none" 
	d="
M66.000000,1.000000 
	C75.020897,1.000000 84.041786,1.000000 93.693871,1.306106 
	C95.631714,2.321555 96.930283,3.046276 98.246300,3.737797 
	C108.459320,9.104379 113.955704,17.660349 113.775833,29.084026 
	C113.599617,40.275776 107.964615,48.511963 97.819092,53.546902 
	C96.739479,54.082676 95.933121,55.169052 95.000000,56.000000 
	C84.979103,56.000000 74.958214,56.000000 64.545441,55.575844 
	C63.810440,53.216606 63.171200,51.281521 63.171204,49.346436 
	C63.171246,34.330097 63.294605,19.313759 63.363449,4.264254 
	C63.347088,4.231088 63.282276,4.266736 63.541931,4.102267 
	C64.534386,2.958532 65.267197,1.979266 66.000000,1.000000 
M101.542236,33.834553 
	C103.912598,24.494287 100.498756,16.404371 91.894249,13.621727 
	C87.312386,12.139980 82.077690,12.503571 77.135559,12.480252 
	C76.314781,12.476378 74.795670,14.748553 74.767487,15.995347 
	C74.575577,24.485247 74.613823,32.984203 74.817787,41.474472 
	C74.844223,42.574783 76.048569,44.329124 77.044479,44.617985 
	C86.702049,47.419094 96.524437,43.228031 101.542236,33.834553 
z"/>
<path fill="#5DB0C3" opacity="1.000000" stroke="none" 
	d="
M1.000000,48.000000 
	C1.000000,44.638714 1.000000,41.277424 1.334998,37.368027 
	C2.586462,35.469025 3.527230,34.133907 4.415534,32.764748 
	C11.282739,22.180208 18.139797,11.589084 25.000000,1.000000 
	C28.692909,1.000000 32.385818,1.000000 36.646767,1.318828 
	C40.424660,5.766655 43.894608,9.723011 46.778793,14.068176 
	C50.417789,19.550493 53.578918,25.350000 56.986038,31.297039 
	C57.365768,32.025127 57.705662,32.468849 58.031746,32.942482 
	C58.017937,32.972397 58.083252,32.981110 58.136658,33.248444 
	C58.427788,33.784416 58.665512,34.053059 58.946629,34.573769 
	C59.264370,35.246021 59.538715,35.666206 59.868736,36.484436 
	C61.929134,41.425610 60.682602,45.710499 58.656418,50.108147 
	C57.879543,51.002609 57.332619,51.740654 56.462677,52.611160 
	C54.426437,53.829079 52.713219,54.914539 51.000000,56.000000 
	C37.645771,56.000000 24.291544,56.000000 10.339479,55.690014 
	C6.827762,52.920017 3.913881,50.460011 1.000000,48.000000 
M44.270054,32.221771 
	C40.927570,26.477867 37.667259,20.683943 34.212673,15.008272 
	C32.039207,11.437402 30.147505,11.369390 27.990337,14.915577 
	C23.069843,23.004423 18.291616,31.182808 13.610845,39.413113 
	C11.522112,43.085777 12.447093,44.738510 16.603739,44.794167 
	C26.240343,44.923191 35.880943,44.937283 45.517384,44.808273 
	C49.594311,44.753696 50.376431,43.100010 48.399830,39.312767 
	C47.247791,37.105419 45.917088,34.991318 44.270054,32.221771 
z"/>
<path fill="#FDFEF7" opacity="1.000000" stroke="none" 
	d="
M95.468735,56.000000 
	C95.933121,55.169052 96.739479,54.082676 97.819092,53.546902 
	C107.964615,48.511963 113.599617,40.275776 113.775833,29.084026 
	C113.955704,17.660349 108.459320,9.104379 98.246300,3.737797 
	C96.930283,3.046276 95.631714,2.321555 94.162529,1.306106 
	C101.965515,1.000000 109.931038,1.000000 117.948273,1.000000 
	C117.948273,19.219715 117.948273,37.439598 117.948273,56.000000 
	C110.649330,56.000000 103.293404,56.000000 95.468735,56.000000 
z"/>
<path fill="#FBFDFA" opacity="1.000000" stroke="none" 
	d="
M56.946198,31.012672 
	C53.578918,25.350000 50.417789,19.550493 46.778793,14.068176 
	C43.894608,9.723011 40.424660,5.766655 37.107407,1.318828 
	C45.354233,1.000000 53.708466,1.000000 62.540352,1.408407 
	C63.106094,2.633454 63.194183,3.450095 63.282276,4.266736 
	C63.282276,4.266736 63.347088,4.231088 62.969887,4.202796 
	C60.055454,4.092698 58.733509,4.566198 60.102474,7.630650 
	C61.135761,9.943686 61.828484,12.588727 61.912754,15.111387 
	C62.145424,22.076197 61.979485,29.054323 61.611519,36.032024 
	C60.772270,36.053375 60.292664,36.069885 59.813061,36.086391 
	C59.538715,35.666206 59.264370,35.246021 58.858543,34.321907 
	C58.512459,33.539024 58.297855,33.260067 58.083252,32.981110 
	C58.083252,32.981110 58.017937,32.972397 57.969643,32.667519 
	C57.596298,31.912651 57.271252,31.462660 56.946198,31.012672 
z"/>
<path fill="#FAFDFD" opacity="1.000000" stroke="none" 
	d="
M24.531307,1.000000 
	C18.139797,11.589084 11.282739,22.180208 4.415534,32.764748 
	C3.527230,34.133907 2.586462,35.469025 1.334998,36.909958 
	C1.000000,25.088211 1.000000,13.176420 1.000000,1.000000 
	C8.685521,1.000000 16.374069,1.000000 24.531307,1.000000 
z"/>
<path fill="#FDFDF7" opacity="1.000000" stroke="none" 
	d="
M61.971161,36.027184 
	C61.979485,29.054323 62.145424,22.076197 61.912754,15.111387 
	C61.828484,12.588727 61.135761,9.943686 60.102474,7.630650 
	C58.733509,4.566198 60.055454,4.092698 62.986252,4.235961 
	C63.294605,19.313759 63.171246,34.330097 63.171204,49.346436 
	C63.171200,51.281521 63.810440,53.216606 64.076782,55.575844 
	C61.958332,56.000000 59.916668,56.000000 57.421906,55.560066 
	C56.907772,54.239651 56.846729,53.359177 56.785690,52.478699 
	C57.332619,51.740654 57.879543,51.002609 59.031235,50.017685 
	C60.417896,48.303787 61.700100,46.894089 61.876141,45.357647 
	C62.228283,42.284210 61.974667,39.141369 61.971161,36.027184 
z"/>
<path fill="#F1FAFC" opacity="1.000000" stroke="none" 
	d="
M1.000000,48.494736 
	C3.913881,50.460011 6.827762,52.920017 9.870821,55.690014 
	C7.088994,56.000000 4.177988,56.000000 1.000000,56.000000 
	C1.000000,53.666466 1.000000,51.327965 1.000000,48.494736 
z"/>
<path fill="#E8F9F7" opacity="1.000000" stroke="none" 
	d="
M56.462673,52.611160 
	C56.846729,53.359177 56.907772,54.239651 56.984406,55.560066 
	C55.285641,56.000000 53.571285,56.000000 51.428463,56.000000 
	C52.713219,54.914539 54.426437,53.829079 56.462673,52.611160 
z"/>
<path fill="#FDFDF7" opacity="1.000000" stroke="none" 
	d="
M63.541931,4.102267 
	C63.194183,3.450095 63.106094,2.633454 63.009003,1.408407 
	C63.750000,1.000000 64.500000,1.000000 65.625000,1.000000 
	C65.267197,1.979266 64.534386,2.958532 63.541931,4.102267 
z"/>
<path fill="#FEFEF6" opacity="1.000000" stroke="none" 
	d="
M101.395508,34.185913 
	C96.524437,43.228031 86.702049,47.419094 77.044479,44.617985 
	C76.048569,44.329124 74.844223,42.574783 74.817787,41.474472 
	C74.613823,32.984203 74.575577,24.485247 74.767487,15.995347 
	C74.795670,14.748553 76.314781,12.476378 77.135559,12.480252 
	C82.077690,12.503571 87.312386,12.139980 91.894249,13.621727 
	C100.498756,16.404371 103.912598,24.494287 101.395508,34.185913 
z"/>
<path fill="#F6FCFD" opacity="1.000000" stroke="none" 
	d="
M44.468414,32.528519 
	C45.917088,34.991318 47.247791,37.105419 48.399830,39.312767 
	C50.376431,43.100010 49.594311,44.753696 45.517384,44.808273 
	C35.880943,44.937283 26.240343,44.923191 16.603739,44.794167 
	C12.447093,44.738510 11.522112,43.085777 13.610845,39.413113 
	C18.291616,31.182808 23.069843,23.004423 27.990337,14.915577 
	C30.147505,11.369390 32.039207,11.437402 34.212673,15.008272 
	C37.667259,20.683943 40.927570,26.477867 44.468414,32.528519 
z"/>
<path fill="#E8F9F7" opacity="1.000000" stroke="none" 
	d="
M61.611519,36.032024 
	C61.974667,39.141369 62.228283,42.284210 61.876141,45.357647 
	C61.700100,46.894089 60.417896,48.303787 59.261192,49.861271 
	C60.682602,45.710499 61.929134,41.425610 59.868736,36.484436 
	C60.292664,36.069885 60.772270,36.053375 61.611519,36.032024 
z"/>
<path fill="#E8F9F7" opacity="1.000000" stroke="none" 
	d="
M56.986038,31.297037 
	C57.271252,31.462660 57.596298,31.912651 57.983452,32.637604 
	C57.705662,32.468849 57.365768,32.025127 56.986038,31.297037 
z"/>
<path fill="#E8F9F7" opacity="1.000000" stroke="none" 
	d="
M58.136658,33.248444 
	C58.297855,33.260067 58.512459,33.539024 58.815147,34.069839 
	C58.665512,34.053059 58.427788,33.784416 58.136658,33.248444 
z"/>
</svg>